<?xml version="1.0" encoding="UTF-8"?>
<svg width="380px" height="80px" viewBox="0 0 380 80" version="1.1" xmlns="http://www.w3.org/2000/svg" xmlns:xlink="http://www.w3.org/1999/xlink">
    <title>Artboard Copy 3</title>
    <g id="Artboard-Copy-3" stroke="none" stroke-width="1" fill="none" fill-rule="evenodd">
        <g id="Group" transform="translate(-1.201126, 13.000000)">
            <path d="M0,57.9754054 C13.1305495,49.8583222 25.5079368,40.6065267 39.3916485,33.6241558 C64.0322619,21.2319435 134.25636,26.9570008 158.795988,35.0099675 C187.757849,44.5141418 208.877679,59.8406986 240.769753,54.9968861 C282.878207,48.6013957 316.890648,25.2741848 359,19.8011717" id="Path-3"></path>
            <path d="M50.8484629,40.527226 L50.5160966,39.885537 C49.1608557,40.4115261 48.1994323,40.5795655 47.6318263,40.3896554 C46.7598724,40.0934358 45.8208546,38.9741211 44.8147728,37.0317113 L44.8147728,37.0317113 L37.4757656,22.8625257 L56.450234,37.625758 L56.9358364,37.3742376 L55.5495094,12.445339 L63.8137525,28.4008478 C64.5922682,29.903903 64.9085091,30.9462003 64.7624753,31.5277398 C64.6164415,32.1092793 63.8565258,32.8291509 62.4827282,33.6873547 L62.4827282,33.6873547 L62.8150945,34.3290436 L72.7699446,29.1728746 L72.4375783,28.5311856 C71.0596287,29.0982643 70.0855614,29.2985144 69.5153763,29.1319357 C68.9451912,28.9653571 68.324738,28.2345979 67.6540168,26.939658 L67.6540168,26.939658 L59.4706196,11.1402357 C58.8178641,9.87998173 58.5819501,8.95738027 58.7628774,8.37243131 C58.9438046,7.78748235 59.6693458,7.10741084 60.9395009,6.33221679 L60.9395009,6.33221679 L60.5981518,5.67318491 L53.5222305,9.33819707 L54.9451844,31.3227001 L37.445321,17.6653203 L30.4214285,21.3033838 L30.7627777,21.9624157 C32.2323926,21.2892033 33.2698432,21.0414598 33.8751294,21.2191852 C34.4804155,21.3969106 35.1154249,22.1274623 35.7801575,23.4108401 L35.7801575,23.4108401 L43.2539078,37.8401699 C44.2240581,39.7132079 44.6342639,41.014775 44.4845251,41.7448713 C44.3347863,42.4749676 43.5646581,43.2954435 42.1741404,44.2062989 L42.1741404,44.2062989 L42.5065067,44.8479879 L50.8484629,40.527226 Z M88.6177752,27.9813759 L88.5831963,27.2595474 C87.6430319,27.226371 87.0001346,27.1398468 86.6545042,26.9999748 C86.0957947,26.7660242 85.8002409,26.310895 85.7678427,25.6345873 C85.7516437,25.2964334 85.8304773,24.8331462 86.0043437,24.2447256 C86.17821,23.6563051 86.7227642,22.0300783 87.6380062,19.3660453 L87.6380062,19.3660453 L98.0947648,18.8651195 L99.9371284,22.6289306 C100.197403,23.1639644 100.404407,23.6754786 100.558142,24.163473 C100.711877,24.6514675 100.793417,24.9930092 100.802763,25.1880979 C100.8308,25.7733643 100.679324,26.148881 100.348335,26.3146482 C100.017346,26.4804153 99.2690771,26.6433595 98.1035288,26.8034806 L98.1035288,26.8034806 L98.1381076,27.5253091 L108.302233,27.0384017 L108.267654,26.3165732 C107.324998,26.2313731 106.646762,26.019443 106.232948,25.680783 C105.819134,25.3421231 105.244439,24.4343374 104.508865,22.9574259 L104.508865,22.9574259 L93.4743092,0.784245862 L92.693954,0.821628387 L85.3028991,20.8271092 C84.1951384,23.8262588 83.4002788,25.6697897 82.9183201,26.3577017 C82.4363615,27.0456137 81.6844521,27.4727065 80.6625919,27.6389801 L80.6625919,27.6389801 L80.6971707,28.3608086 L88.6177752,27.9813759 Z M97.4514386,17.2729849 L88.2627571,17.7131642 L92.3007409,6.49146926 L97.4514386,17.2729849 Z M130.457657,28.1318549 C132.574666,28.2829615 134.807155,28.0506918 137.155122,27.4350459 C139.503089,26.8194 140.693759,26.2777969 140.727133,25.8102364 L140.727133,25.8102364 L141.287525,17.9591169 C141.380228,16.6603378 141.714156,15.8226113 142.289308,15.4459375 C142.632544,15.2093575 143.300015,15.0938254 144.291723,15.099341 L144.291723,15.099341 L144.344563,14.3590369 L134.175123,13.6331691 L134.122282,14.3734732 C135.583413,14.5691426 136.518083,14.8708281 136.92629,15.2785297 C137.334497,15.6862312 137.483905,16.6563617 137.374515,18.188921 L137.374515,18.188921 L136.919805,24.5594324 C136.888285,25.0010172 136.747524,25.3271095 136.497521,25.5377093 C136.247518,25.748309 135.637337,25.9756256 134.66698,26.2196591 C134.068623,26.3727594 133.441506,26.4715909 132.785627,26.5161538 C132.129749,26.5607166 131.561535,26.5658479 131.080987,26.5315476 C128.236661,26.3285271 125.920606,25.1254234 124.132824,22.9222366 C122.345042,20.7190498 121.582326,17.779684 121.844676,14.1041392 C122.162649,9.64932696 123.361769,6.52037931 125.442035,4.71729621 C127.522301,2.91421312 129.841732,2.10398445 132.400327,2.2866102 C134.919958,2.46645484 136.906205,3.44368135 138.359067,5.21828971 C139.161576,6.22850973 139.902881,7.73041172 140.582984,9.7239957 L140.582984,9.7239957 L141.498623,9.78935162 L141.786244,1.37049608 L140.909568,1.30792127 C140.711062,1.71147913 140.483792,2.01507921 140.227758,2.21872152 C139.971724,2.42236383 139.557976,2.50379023 138.986513,2.46300072 C138.765721,2.44724114 137.923823,2.17175833 136.460819,1.6365523 C134.997815,1.10134627 133.49354,0.778584709 131.947992,0.668267632 C127.675009,0.363273361 124.141941,1.57966277 121.348788,4.31743587 C118.808883,6.79915198 117.406365,9.89726411 117.141233,13.6117723 C116.839947,17.8328042 118.073959,21.3018604 120.84327,24.0189408 C123.356524,26.4827733 126.561319,27.8537446 130.457657,28.1318549 Z M162.745475,30.9568323 L162.85962,30.2432476 C161.270957,29.8704486 160.268072,29.4627833 159.850964,29.0202515 C159.433855,28.5777197 159.347672,27.5914396 159.592415,26.0614112 L159.592415,26.0614112 L162.402841,8.49179995 C162.635244,7.03891589 163.022728,6.14158963 163.565292,5.79982117 C164.107857,5.45805272 165.188895,5.37713762 166.808408,5.55707587 L166.808408,5.55707587 L166.925637,4.82420514 L155.238278,2.95470092 L155.121048,3.68757164 C156.715881,4.02179847 157.717738,4.43589254 158.12662,4.92985386 C158.535502,5.42381518 158.623741,6.39723787 158.391338,7.85012193 L158.391338,7.85012193 L155.580912,25.4197332 C155.33617,26.9497616 154.946629,27.8599452 154.412291,28.1502841 C153.877953,28.4406231 152.797943,28.5151095 151.172261,28.3737434 L151.172261,28.3737434 L151.058116,29.087328 L162.745475,30.9568323 Z M183.474564,37.7140436 C185.938922,38.595297 188.466643,38.7386503 191.057725,38.1441038 C192.581017,37.7899908 193.948047,37.2348009 195.158814,36.4785342 L195.158814,36.4785342 L194.709873,35.5297786 C193.20047,36.1930815 191.879476,36.6195362 190.746892,36.8091427 C188.770776,37.1534377 186.808009,36.9770298 184.858591,36.279919 C182.161283,35.315363 180.291359,33.5162133 179.248819,30.8824696 C178.206279,28.248726 178.285665,25.252167 179.486975,21.8927927 C180.79351,18.2391666 182.656225,15.6694434 185.075121,14.1836232 C187.494016,12.697803 190.021467,12.42621 192.657472,13.3688441 C195.268957,14.3027096 197.000746,16.0144348 197.852842,18.5040198 C198.293749,19.8232677 198.465215,21.4126143 198.36724,23.2720596 L198.36724,23.2720596 L199.231605,23.581156 L201.907379,14.9964639 L201.116577,14.7136736 C200.844904,15.0866869 200.514607,15.3142809 200.125685,15.3964558 C199.736762,15.4786306 199.364524,15.4561451 199.00897,15.3289991 C198.837323,15.2676182 198.106603,14.7781456 196.816809,13.860581 C195.527015,12.9430165 194.201661,12.240903 192.840746,11.7542407 C188.92965,10.3556347 185.28725,10.5258315 181.913547,12.2648313 C178.706292,13.9250696 176.447205,16.588132 175.136286,20.2540185 C173.856058,23.8340817 173.885783,27.2119099 175.225464,30.3875033 C176.678902,33.8250296 179.428602,36.2672097 183.474564,37.7140436 Z M211.374722,47.1545879 C213.672041,48.0369347 215.811224,48.1053425 217.792271,47.3598113 C219.773317,46.6142801 221.139655,45.2630265 221.891284,43.3060505 C222.451504,41.8474349 222.523754,40.4245723 222.108033,39.0374627 C221.675488,37.6578398 220.67487,35.9414731 219.106177,33.8883629 L219.106177,33.8883629 L216.601597,30.6040383 C215.663376,29.3789016 215.035595,28.3078679 214.718253,27.3909375 C214.396243,26.4861621 214.419643,25.5536467 214.788455,24.5933914 C215.199283,23.52374 215.900091,22.8339654 216.890877,22.5240678 C217.881663,22.2141702 218.887572,22.2552984 219.908603,22.6474525 C221.221357,23.1516507 222.367234,24.1357345 223.346232,25.5997041 C224.325231,27.0636736 224.658762,29.1096513 224.346823,31.7376371 L224.346823,31.7376371 L225.240225,32.0807719 L227.472954,23.8161928 L226.707181,23.5220772 C226.455879,23.8858485 226.200087,24.1432837 225.939805,24.2943827 C225.679522,24.4454818 225.318434,24.4323298 224.856539,24.2549268 C224.686367,24.1895678 224.083172,23.7172886 223.046955,22.8380892 C222.010738,21.9588898 221.0672,21.3558926 220.216341,21.0290975 C218.149969,20.2354523 216.250366,20.2241911 214.517532,20.9953139 C212.784698,21.7664367 211.556472,23.0940207 210.832854,24.9780659 C210.286639,26.4002162 210.315858,27.9038949 210.92051,29.4891022 C211.253707,30.3284334 211.783721,31.2363831 212.510551,32.2129512 L212.510551,32.2129512 L214.937973,35.4257966 C216.334559,37.2733226 217.208787,38.5924409 217.560659,39.3831516 C218.090359,40.6187633 218.121784,41.8443257 217.654934,43.0598388 C217.13673,44.4090583 216.298359,45.2935781 215.13982,45.7133984 C213.981281,46.1332186 212.806411,46.1143722 211.615208,45.656859 C209.415129,44.8118603 207.907425,43.2354905 207.092094,40.9277497 C206.624052,39.6042339 206.396125,37.982391 206.408311,36.0622209 L206.408311,36.0622209 L205.551374,35.7330916 L203.610369,44.1097148 L204.43084,44.4248386 C204.596173,44.1396344 204.806163,43.8925039 205.060809,43.6834473 C205.315455,43.4743907 205.661571,43.4538954 206.099155,43.6219615 C206.281482,43.691989 206.917641,44.1873901 208.007631,45.1081646 C209.097621,46.0289392 210.219984,46.7110803 211.374722,47.1545879 Z M239.675923,53.9490326 L239.759413,53.2312155 C238.182114,52.9297805 237.186458,52.5583565 236.772443,52.1169437 C236.358429,51.6755308 236.238672,50.7046731 236.413174,49.2043706 L236.413174,49.2043706 L237.252589,41.9873983 C237.57593,42.0250064 238.069513,42.0922472 238.733339,42.1891205 C239.397165,42.2859938 239.942484,42.3592518 240.369294,42.4088946 C243.344031,42.7548898 245.891527,42.4350872 248.011781,41.4494868 C250.132035,40.4638865 251.349364,38.6195207 251.663769,35.9163895 C251.911983,33.7823385 251.219637,31.9583655 249.586731,30.4444705 C247.953826,28.9305756 245.455999,27.9780656 242.093252,27.5869406 L242.093252,27.5869406 L231.617002,26.3684358 L231.531255,27.1056534 C232.940417,27.3875322 233.829596,27.7727888 234.198792,28.2614232 C234.567989,28.7500577 234.672105,29.6863248 234.511142,31.0702245 L234.511142,31.0702245 L232.509635,48.2784355 C232.318586,49.921008 232.008822,50.9500537 231.580342,51.3655725 C231.151863,51.7810914 230.172732,51.9719827 228.642948,51.9382465 L228.642948,51.9382465 L228.559458,52.6560636 L239.675923,53.9490326 Z M239.46113,40.7498945 C239.254192,40.7258253 239.041539,40.6945371 238.823172,40.6560299 C238.604804,40.6175227 238.143706,40.524566 237.439877,40.3771598 L237.439877,40.3771598 L238.644843,30.0173124 C238.709529,29.4611658 238.845043,29.1131636 239.051385,28.9733058 C239.257727,28.833448 239.768308,28.8109054 240.583127,28.905678 C242.303302,29.1057535 243.69742,29.5169686 244.765482,30.1393235 C246.75543,31.2883794 247.608996,33.0786697 247.326183,35.5101944 C247.025318,38.0969229 245.869354,39.751797 243.858293,40.4748168 C242.750495,40.8703121 241.284774,40.9620046 239.46113,40.7498945 Z M270.289111,53.2065747 C273.709036,52.4500362 276.379286,50.6858021 278.299862,47.9138724 C280.441074,44.8130867 281.043413,41.1459003 280.106881,36.9123131 C279.18441,32.7422933 277.143021,29.6932783 273.982713,27.765268 C271.068008,25.9829612 267.849839,25.4813267 264.328206,26.2603646 C260.819287,27.03659 258.117927,28.841045 256.224127,31.6737297 C254.162009,34.7703544 253.592185,38.4036766 254.514656,42.5736964 C255.392128,46.5403006 257.337549,49.5171958 260.35092,51.504382 C263.3149,53.4491515 266.627631,54.0165491 270.289111,53.2065747 Z M269.976934,51.795379 C267.624941,52.315675 265.42438,51.7722952 263.375251,50.1652395 C261.326122,48.5581838 259.847354,45.7014298 258.938945,41.5949774 C258.027724,37.4758115 258.165338,34.2548214 259.351789,31.9320071 C260.53824,29.6091929 262.301105,28.1890439 264.640384,27.6715603 C266.903382,27.1709511 269.070782,27.6849937 271.142583,29.2136881 C273.214384,30.7423824 274.721363,33.6362366 275.663521,37.8952508 C276.594429,42.103411 276.454676,45.3448775 275.244263,47.6196502 C274.033849,49.894423 272.278073,51.2863326 269.976934,51.795379 Z M304.225919,43.9949162 C307.511297,42.7806156 309.917006,40.6698525 311.443047,37.6626269 C313.142984,34.2996112 313.241349,30.5845885 311.738145,26.517559 C310.25751,22.511596 307.820688,19.7683024 304.427678,18.2876784 C301.297792,16.9180277 298.041307,16.8584093 294.658223,18.1088229 C291.287351,19.3547224 288.856287,21.5095612 287.365031,24.5733391 C285.742888,27.9214834 285.672134,31.5985371 287.152768,35.6045001 C288.561176,39.4150503 290.89312,42.0999355 294.148598,43.6591557 C297.349381,45.1830651 300.708488,45.2949853 304.225919,43.9949162 Z M303.72485,42.6392397 C301.465389,43.4743535 299.211398,43.23508 296.962876,41.9214193 C294.714353,40.6077585 292.861061,37.9784798 291.402997,34.0335833 C289.940419,30.0764735 289.639012,26.8666653 290.498775,24.4041588 C291.358538,21.9416522 292.912044,20.2950991 295.159291,19.4644994 C297.333259,18.6609845 299.55041,18.8756997 301.810744,20.1086449 C304.071079,21.3415902 305.957362,24.0037909 307.469596,28.095247 C308.963772,32.1378499 309.265844,35.3682351 308.375811,37.7864026 C307.485778,40.20457 305.935458,41.8221824 303.72485,42.6392397 Z M346.986236,28.6908511 L339.96451,8.84153822 C339.265377,6.86519971 339.057476,5.51615648 339.340806,4.79440854 C339.624137,4.07266061 340.457858,3.38410149 341.84197,2.7287312 L341.84197,2.7287312 L341.594451,2.02903371 L332.737754,5.16210465 L332.985273,5.86180214 C334.415817,5.49386029 335.405283,5.4407831 335.953672,5.70257058 C336.788906,6.11149366 337.573459,7.35322604 338.307332,9.42776771 L338.307332,9.42776771 L342.769189,22.0407355 L321.81879,9.02470562 L315.355795,11.3110006 L315.603314,12.0106981 C316.385349,11.7616751 316.996844,11.6454914 317.437799,11.662147 C317.878755,11.6788025 318.490504,11.9147233 319.273046,12.3699094 L319.273046,12.3699094 L320.003563,12.7951589 L325.885399,29.4221808 C326.588874,31.4107947 326.816274,32.7563931 326.567599,33.458976 C326.318923,34.1615589 325.443324,34.8683854 323.9408,35.5794555 L323.9408,35.5794555 L324.181806,36.2607399 L333.038503,33.127669 L332.797497,32.4463846 C331.382819,32.7810908 330.407424,32.8153789 329.87131,32.549249 C329.048352,32.1359835 328.272107,30.8982176 327.542577,28.8359513 L327.542577,28.8359513 L322.344676,14.1423041 L346.341778,28.9188292 L346.986236,28.6908511 Z" id="MAGICSPOON" fill="#000000" fill-rule="nonzero"></path>
        </g>
    </g>
</svg>